<svg xmlns="http://www.w3.org/2000/svg" viewBox="0 0 168 74.59"><defs><style>.cls-1{fill:#fff;}.cls-2{fill:gray;}</style></defs><title>black</title><g id="Capa_2" data-name="Capa 2"><g id="Capa_1-2" data-name="Capa 1"><path class="cls-1" d="M13.35,22.77c2-.71,11.75-4.75,11.75-10.08,0-4.3-3.4-6-8.66-6-9.12,0-12.91,5.58-13.94,8.6L0,13.91C2.12,7.49,9.44,3.76,16.37,3.76S28.12,7,28.12,12.69c0,3.53-2.76,7.19-8.35,10.27,8.67,1.35,14.45,5.2,14.45,11.43,0,4.75-2.83,8.79-8.22,11.62a30.88,30.88,0,0,1-13.48,3.34c-6.61,0-7.83-3.92-7.83-13.36,0-8.47,2.12-23.88,6-23.88a1.65,1.65,0,0,1,1.73,1.73,3.26,3.26,0,0,1-.83,2c-1.73,2.44-4,10.08-4,20.1a37.77,37.77,0,0,0,.71,7.77c.38,1.73,1,2.56,4,2.56,7,0,18.94-4,18.94-11.81a6.16,6.16,0,0,0-1.67-4.17c-3.53-4-10-4.75-15.67-4.75Z"/><path class="cls-1" d="M53.41,41.58c-2.56,4.68-6.74,8-12.07,8-3.46,0-6.42-1.93-6.42-8.09,0-4.37,2.44-10.27,8-10.27,2.19,0,4.88,1.09,4.88,4.75,0,5-5.32,7.32-9.75,7.38a3.39,3.39,0,0,0,3.66,3.27c3.08,0,6.8-1.79,9.37-6.67Zm-8.6-5.52c0-1.48-.9-2-2.12-2-2.95,0-4.49,3-4.75,6.35C38.26,40.42,44.81,40.36,44.81,36.06Z"/><path class="cls-1" d="M53.41,49.47a35.7,35.7,0,0,1-2.82-14.63c0-2.06,1.28-2.31,1.73-2.31a1.6,1.6,0,0,1,1.8,1.73c0,1.6-.51,2.57-.51,4.3a21.9,21.9,0,0,0,.32,4.11c.19-5.46,2.31-10.92,8.09-10.92,3.53,0,5.71,2.12,5.71,5.4a5.61,5.61,0,0,1-5.52,5.52C60.86,42.67,60,42,60,41s.77-1.48,2.24-1.61c2-.06,2.64-1.09,2.64-2.37A2.65,2.65,0,0,0,62,34.32c-3.66,0-6.1,3.92-6.1,10.79a30.31,30.31,0,0,0,.25,3.59Z"/><path class="cls-1" d="M72.42,49.47a35.72,35.72,0,0,1-2.83-14.63c0-2.06,1.29-2.31,1.73-2.31a1.6,1.6,0,0,1,1.8,1.73c0,1.6-.51,2.57-.51,4.3a21.9,21.9,0,0,0,.32,4.11c.19-5.46,2.31-10.92,8.09-10.92,3.53,0,5.71,2.12,5.71,5.4a5.6,5.6,0,0,1-5.52,5.52C79.86,42.67,79,42,79,41s.77-1.48,2.25-1.61c2-.06,2.63-1.09,2.63-2.37A2.65,2.65,0,0,0,81,34.32c-3.66,0-6.1,3.92-6.1,10.79a28.18,28.18,0,0,0,.26,3.59Z"/><path class="cls-2" d="M104.87,58.21a16.73,16.73,0,0,1-3.69,11.15,14.32,14.32,0,0,1-7,4.4,21.3,21.3,0,0,1-6.09.83C77.59,74.59,73.67,70,73.67,65c0-5.78,5.26-10.53,13.68-10.53a24.44,24.44,0,0,1,3.3.2,11,11,0,0,1,3.43.92c1.18.58,1.68,1.29,1.68,1.9a1.77,1.77,0,0,1-1.93,1.86,6.18,6.18,0,0,1-2.18-.77,5,5,0,0,0-.62-.29,10.25,10.25,0,0,0-3-.79,12.16,12.16,0,0,0-1.37-.08c-5.59,0-10,3-10,7.32,0,3.67,3.08,6.94,11.61,6.94h.53a16.25,16.25,0,0,0,5.43-1c4.94-1.88,7.72-6.3,7.72-12.48,0-1.91-.1-3.67-.24-5.38-.08-1.07-.19-2.12-.3-3.17-.21-2.12-.43-4.22-.54-6.52a12.36,12.36,0,0,1-2.07,4,8.28,8.28,0,0,1-4.45,2.82,4.57,4.57,0,0,1-2.4,0c-1.52-.39-2.68-1.71-3.3-4.06a11,11,0,0,1-.26-1.27,1.41,1.41,0,0,0,1.77.47,2,2,0,0,0,1.05-1.31,10.94,10.94,0,0,0,.23,1.11C91.8,46.4,92.52,47,93.3,47.1a2.23,2.23,0,0,0,.92-.07,5.26,5.26,0,0,0,3.06-2.46,12.53,12.53,0,0,0,1.33-3,25.49,25.49,0,0,0,1-5.25l-.1-.17-.24-.43a2.84,2.84,0,0,1,3.62-1.18v.28a2.48,2.48,0,0,1,.48,1.62V37c0,1.43.09,2.87.2,4.3,0,.66.1,1.32.17,2,.19,2.06.43,4.13.64,6.21.11,1.12.22,2.23.3,3.35C104.78,54.63,104.87,56.41,104.87,58.21Z"/><path class="cls-2" d="M114.07,33.13c-2.89,2.82-4.11,5.65-4.11,9,0,4.17,2.25,5.2,3.92,5.2,3.85,0,6.36-4,6.36-8.15,0-1.61-.71-3.79-2.32-3.79-3.78,0-1,5.2-3.91,5.2-1.09,0-1.41-.84-1.41-1.8,0-2.89,2.18-6,5.26-6s5.33,1.73,5.33,6.36c0,3.21-2.38,10.91-9.44,10.91-3.91,0-6.74-3.08-6.74-7.77A15.36,15.36,0,0,1,112,31.52Z"/><path class="cls-2" d="M132.82,33.13c-2.89,2.82-4.11,5.65-4.11,9,0,4.17,2.25,5.2,3.92,5.2,3.85,0,6.35-4,6.35-8.15,0-1.61-.7-3.79-2.31-3.79-3.79,0-1,5.2-3.92,5.2-1.09,0-1.41-.84-1.41-1.8,0-2.89,2.19-6,5.27-6s5.33,1.73,5.33,6.36c0,3.21-2.38,10.91-9.44,10.91-3.92,0-6.74-3.08-6.74-7.77a15.32,15.32,0,0,1,4.94-10.85Z"/><path class="cls-2" d="M164.15.64c-1.86,9.18-4.05,28.19-4.05,33.77,0,11.81,2.06,16.69,4.18,16.69.77,0,1.09-1,2.05-1A1.55,1.55,0,0,1,168,51.81c0,1.22-1.28,2.38-3.21,2.38-3.6,0-6.61-2.89-7.38-11.62-1.16,4.81-3.92,7.63-7.32,7.63-3.08,0-5.59-1.86-5.59-7.25,0-5.65,4.05-11,10.08-11a10.64,10.64,0,0,1,2.57.26A308.78,308.78,0,0,1,161.26,0Zm-9.31,34.22c-4.49,0-7.32,3.85-7.32,8,0,3.85,1.86,4.3,3,4.3,2.89,0,5.26-3.66,6.35-11.94A5.2,5.2,0,0,0,154.84,34.86Z"/><path class="cls-1" d="M102.44,33.32a2.84,2.84,0,0,0-3.62,1.18c-.29-1.48-.29-1.89-1-2.37A10,10,0,0,0,93.06,35a9.21,9.21,0,0,0-2,3.58,9.34,9.34,0,0,0-.28,4,2,2,0,0,1-1,1.31A1.41,1.41,0,0,1,88,43.42,12.73,12.73,0,0,1,88,39.2a12.14,12.14,0,0,1,2.42-5.38c.16-.19.32-.38.5-.57a12.43,12.43,0,0,1,6.19-3.65,5.1,5.1,0,0,1,2.23-.27,3.6,3.6,0,0,1,2.9,2.11A6.15,6.15,0,0,1,102.44,33.32Z"/><path class="cls-2" d="M116.22,55.43H120c2.27,0,3.76,1.2,3.76,3.18v0c0,2.17-1.81,3.29-3.95,3.29h-2.44v3.55h-1.13Zm3.62,5.47c1.66,0,2.75-.89,2.75-2.21v0c0-1.44-1.07-2.18-2.69-2.18h-2.55V60.9Z"/><path class="cls-2" d="M128,55.43h7.26v1h-6.13v3.43h5.49v1h-5.49v3.51h6.21v1H128Z"/><path class="cls-2" d="M139.73,55.43h4.32a4,4,0,0,1,2.86,1,2.76,2.76,0,0,1,.77,2v0A2.93,2.93,0,0,1,145,61.37L148,65.48h-1.39l-2.91-3.91h-2.88v3.91h-1.13ZM144,60.55c1.51,0,2.59-.77,2.59-2.06v0c0-1.24-.95-2-2.58-2h-3.1v4.07Z"/><path class="cls-2" d="M152.1,61.27V55.43h1.14V61.2c0,2.17,1.14,3.39,3.07,3.39s3-1.12,3-3.32V55.43h1.13v5.75c0,2.93-1.68,4.46-4.19,4.46S152.1,64.11,152.1,61.27Z"/></g></g></svg>